<svg xmlns="http://www.w3.org/2000/svg" height="24" viewBox="0 -960 960 960" width="24"><path d="M799.13-100.782q-128.391 0-253.782-55.913-125.392-55.913-228.783-158.739Q213.173-418.826 157.26-544.5q-55.913-125.674-55.913-254.065 0-25.914 17.087-43.284 17.087-17.369 43.001-17.369H322.87q27 0 44.783 14.304 17.783 14.305 23.175 39.175l25.434 128.13q4.261 24.479-.717 41.696-4.978 17.218-19.761 30.305L295.392-512.13q17.739 30.782 41.848 60.76 24.108 29.979 54.847 59.718 28.174 28.173 56.522 50.717 28.347 22.543 58.434 40.021l97.956-96.261q15.218-14.653 35.371-20.283 20.152-5.631 42.631-1.37l122.738 26.305q25.87 7.391 39.675 23.826 13.804 16.435 13.804 41.306v165.956q0 25.914-17.369 43.284-17.37 17.369-42.719 17.369Z"/></svg>